<svg width="660" height="660" viewBox="0 0 660 660" fill="none" xmlns="http://www.w3.org/2000/svg">
<path d="M175.537 61.2957C175.537 61.2957 220.911 201.959 79.1522 303.552C117.317 287.645 300.544 187.794 348.443 294.794C359.479 266.501 346.782 242.221 326.414 220.117C306.047 198.014 195.82 121.706 175.537 61.2957Z" fill="url(#paint0_linear_1_935)"/>
<path d="M15.4396 364.571C15.4396 364.571 163.21 367.649 212.887 534.817C210.33 493.545 175.834 287.747 292.622 277.458C269.492 257.776 242.38 261.86 214.85 273.862C187.32 285.864 76.2514 364.045 15.4396 364.571Z" fill="url(#paint1_linear_1_935)"/>
<path d="M256.62 617.584C256.62 617.584 304.218 477.662 478.589 480.829C438.509 470.795 231.877 441.478 257.37 327.043C231.627 343.142 227.323 370.222 230.434 400.09C233.544 429.958 273.981 570.463 256.62 617.584Z" fill="url(#paint2_linear_1_935)"/>
<path d="M569.772 461.872C569.772 461.872 449.959 375.377 504.029 209.573C482.686 244.996 394.141 433.938 292.216 376.047C300.064 405.39 324.7 417.422 354.167 423.204C383.635 428.986 524.25 430.975 569.772 461.872Z" fill="url(#paint3_linear_1_935)"/>
<path d="M519.705 119.655C519.705 119.655 400.469 207.002 259.42 104.422C286.532 135.649 439.019 278.126 352.496 357.275C382.823 358.85 401.864 339.088 416.44 312.861C431.016 286.634 471.178 154.906 519.705 119.655Z" fill="url(#paint4_linear_1_935)"/>
<path d="M67.8701 213.308C94.0631 214.402 116.184 194.056 117.278 167.863C118.372 141.669 98.0259 119.549 71.8329 118.454C45.6399 117.36 23.5191 137.707 22.4248 163.9C21.3305 190.093 41.6771 212.213 67.8701 213.308Z" fill="url(#paint5_linear_1_935)"/>
<path d="M394.522 110.278C420.715 111.373 442.836 91.0262 443.93 64.8332C445.024 38.6402 424.678 16.5194 398.485 15.4251C372.292 14.3308 350.171 34.6774 349.077 60.8704C347.982 87.0634 368.329 109.184 394.522 110.278Z" fill="url(#paint6_linear_1_935)"/>
<path d="M596.134 369.565C622.327 370.66 644.448 350.313 645.542 324.12C646.637 297.927 626.29 275.806 600.097 274.712C573.904 273.618 551.783 293.964 550.689 320.157C549.595 346.35 569.941 368.471 596.134 369.565Z" fill="url(#paint7_linear_1_935)"/>
<path d="M399.7 649.163C425.893 650.258 448.013 629.911 449.108 603.718C450.202 577.525 429.856 555.404 403.662 554.31C377.469 553.216 355.349 573.562 354.254 599.755C353.16 625.948 373.507 648.069 399.7 649.163Z" fill="url(#paint8_linear_1_935)"/>
<path d="M71.3911 547.94C97.5841 549.034 119.705 528.688 120.799 502.495C121.893 476.302 101.547 454.181 75.3539 453.087C49.1609 451.992 27.0401 472.339 25.9458 498.532C24.8515 524.725 45.1981 546.846 71.3911 547.94Z" fill="url(#paint9_linear_1_935)"/>
<path d="M34.878 162.868C36.5935 167.836 38.7863 172.626 41.4257 177.171C43.912 181.453 47.0376 185.329 50.6942 188.667C52.4924 190.323 54.4378 191.811 56.5061 193.114C57.5079 193.831 58.6233 194.369 59.6853 195.031L61.3569 195.872C61.9022 196.183 62.4673 196.458 63.0485 196.695C67.8823 198.815 72.8519 200.611 77.9244 202.07C71.0062 203.506 63.8234 202.962 57.2004 200.5C55.8518 199.968 54.5347 199.359 53.2555 198.677C51.9629 197.993 50.7069 197.242 49.4925 196.427C48.3334 195.55 47.1648 194.672 46.0876 193.682C41.7884 189.774 38.5162 184.868 36.5595 179.398C34.5876 174.124 34.0085 168.431 34.878 162.868Z" fill="white"/>
<path d="M367.914 598.687C369.63 603.655 371.822 608.445 374.462 612.99C376.948 617.269 380.07 621.145 383.721 624.486C385.523 626.137 387.468 627.625 389.533 628.933C390.544 629.65 391.65 630.188 392.712 630.849L394.383 631.691C394.933 632 395.501 632.275 396.085 632.514C400.917 634.64 405.887 636.439 410.96 637.899C405.466 639.071 399.776 638.965 394.33 637.59C392.939 637.248 391.569 636.827 390.227 636.329C388.882 635.804 387.568 635.205 386.29 634.535C384.998 633.851 383.741 633.1 382.527 632.285C381.368 631.407 380.199 630.529 379.122 629.539C374.823 625.629 371.549 620.724 369.585 615.255C367.614 609.967 367.039 604.261 367.914 598.687Z" fill="white"/>
<path d="M40.757 494.609C42.4749 499.581 44.6708 504.374 47.3139 508.923C49.7972 513.203 52.9194 517.08 56.5727 520.418C58.3728 522.071 60.3179 523.56 62.3847 524.865C63.3961 525.582 64.5018 526.12 65.5638 526.781L67.2354 527.623C67.7858 527.933 68.3537 528.211 68.9363 528.456C73.7697 530.568 78.7356 532.364 83.8025 533.83C76.883 535.255 69.7027 534.707 63.0789 532.251C61.7344 531.727 60.4203 531.128 59.1425 530.457C56.5461 529.126 54.1441 527.445 52.0034 525.463C47.7045 521.553 44.4297 516.648 42.4658 511.179C40.4872 505.893 39.8988 500.187 40.757 494.609Z" fill="white"/>
<path d="M565.646 318.053C567.367 323.022 569.56 327.815 572.193 332.367C574.68 336.645 577.806 340.518 581.462 343.853C583.26 345.508 585.206 346.997 587.274 348.3C588.276 349.016 589.391 349.555 590.453 350.216L592.124 351.067C592.676 351.372 593.244 351.647 593.825 351.89C598.659 354.003 603.625 355.799 608.692 357.265C601.772 358.693 594.591 358.146 587.968 355.686C586.623 355.163 585.309 354.564 584.032 353.892C582.737 353.212 581.481 352.461 580.269 351.642C579.1 350.764 577.931 349.896 576.854 348.906C572.56 344.989 569.289 340.082 567.326 334.612C565.35 329.329 564.771 323.626 565.646 318.053Z" fill="white"/>
<path d="M362.351 60.2004C364.067 65.1685 366.26 69.9588 368.899 74.504C371.392 78.7616 374.518 82.6151 378.17 85.9322C379.969 87.5879 381.914 89.0764 383.982 90.3792C384.984 91.0961 386.099 91.6344 387.162 92.2863L388.833 93.1372C389.38 93.4442 389.945 93.719 390.525 93.96C395.358 96.0801 400.328 97.8759 405.4 99.3353C398.483 100.774 391.3 100.233 384.676 97.7752C383.328 97.2524 382.01 96.6533 380.73 95.9807C379.437 95.2968 378.181 94.5459 376.967 93.7311C375.808 92.8534 374.639 91.9753 373.562 90.9853C369.263 87.0775 365.991 82.1722 364.034 76.7018C362.067 71.4368 361.487 65.7541 362.351 60.2004Z" fill="white"/>
<path d="M252.406 278.989C250.667 279.673 248.98 280.482 247.358 281.411C245.72 282.307 244.146 283.292 242.618 284.327C239.567 286.397 236.679 288.697 233.98 291.208C228.607 296.194 223.873 301.826 219.885 307.976C215.897 314.093 212.48 320.564 209.676 327.307C206.845 334.053 204.527 341.002 202.742 348.097L201.372 353.43L200.23 358.83L199.645 361.525L199.175 364.253L198.214 369.71C197.916 371.529 197.695 373.362 197.425 375.192C197.156 377.023 196.867 378.852 196.704 380.697L196.154 386.228C195.942 388.071 195.721 389.913 195.614 391.769C194.407 406.588 194.121 421.522 193.916 436.575C191.286 421.702 190.076 406.612 190.302 391.509C190.278 387.718 190.57 383.941 190.777 380.15C190.857 378.225 191.118 376.365 191.275 374.472C191.431 372.579 191.626 370.688 191.849 368.798C192.776 361.244 194.2 353.759 196.112 346.393C198.07 338.978 200.63 331.735 203.766 324.737C206.963 317.724 210.914 311.08 215.548 304.921C217.873 301.849 220.398 298.933 223.107 296.192C225.841 293.49 228.762 290.983 231.848 288.689C234.941 286.432 238.221 284.444 241.652 282.744C245.053 281.017 248.67 279.754 252.406 278.989Z" fill="white"/>
<path d="M338.853 264.212C337.79 262.669 336.617 261.205 335.343 259.832C334.118 258.441 332.794 257.132 331.439 255.87C328.731 253.369 325.835 251.078 322.777 249.019C316.72 244.906 310.174 241.565 303.29 239.073C296.431 236.568 289.356 234.7 282.155 233.494C274.934 232.255 267.629 231.566 260.304 231.434L254.794 231.3L249.274 231.407L246.514 231.446L243.75 231.61L238.221 231.909C236.384 232.025 234.544 232.218 232.696 232.373C230.848 232.527 229.01 232.662 227.177 232.913L221.66 233.647C219.819 233.86 217.969 234.062 216.142 234.381C201.434 236.544 186.821 239.645 172.108 242.84C186.004 236.921 200.431 232.336 215.195 229.144C218.877 228.256 222.632 227.69 226.363 227.017C228.228 226.68 230.126 226.499 232.008 226.221C233.89 225.943 235.771 225.703 237.66 225.493C245.254 224.716 252.89 224.433 260.52 224.645C268.188 224.882 275.824 225.746 283.352 227.228C290.903 228.753 298.265 231.101 305.305 234.23C308.824 235.771 312.238 237.54 315.527 239.526C318.774 241.586 321.875 243.868 324.807 246.355C327.707 248.854 330.387 251.598 332.815 254.558C335.247 257.494 337.278 260.74 338.853 264.212Z" fill="white"/>
<path d="M378.456 339.199C379.537 337.673 380.507 336.07 381.357 334.403C382.234 332.769 383.025 331.089 383.727 329.372C385.146 325.978 386.301 322.48 387.182 318.909C388.953 311.806 389.835 304.509 389.806 297.188C389.794 289.887 389.11 282.602 387.764 275.426C386.44 268.203 384.568 261.091 382.164 254.152L380.451 248.989L378.448 243.843L377.456 241.265L376.357 238.722L374.168 233.645C373.419 231.955 372.602 230.292 371.823 228.62C371.044 226.948 370.296 225.249 369.419 223.621L366.848 218.692C366.02 217.028 365.193 215.364 364.267 213.763C357.165 200.709 349.218 188.063 341.148 175.345C351.492 186.351 360.768 198.314 368.853 211.071C370.949 214.225 372.777 217.561 374.694 220.833C375.658 222.464 376.483 224.176 377.377 225.853C378.271 227.53 379.166 229.206 380.01 230.91C383.364 237.765 386.261 244.834 388.682 252.071C391.107 259.352 392.927 266.82 394.123 274.4C395.286 282.017 395.61 289.74 395.09 297.428C394.826 301.271 394.312 305.092 393.551 308.867C392.736 312.627 391.663 316.326 390.34 319.938C388.993 323.492 387.343 326.923 385.409 330.194C383.504 333.493 381.166 336.522 378.456 339.199Z" fill="white"/>
<path d="M320.502 397.874C322.282 398.445 324.1 398.892 325.943 399.21C327.769 399.576 329.621 399.798 331.455 399.98C335.127 400.313 338.818 400.37 342.498 400.153C349.804 399.739 357.03 398.421 364.011 396.23C370.978 394.043 377.729 391.22 384.179 387.796C390.674 384.398 396.9 380.509 402.803 376.164L407.259 372.918L411.568 369.472L413.742 367.76L415.834 365.919L420.044 362.324C421.426 361.099 422.771 359.825 424.134 358.58C425.498 357.335 426.899 356.111 428.15 354.794L432.093 350.871C433.43 349.586 434.775 348.302 436.038 346.937C446.386 336.271 456.098 324.922 465.824 313.468C458.403 326.624 449.745 339.042 439.966 350.553C437.586 353.501 434.907 356.234 432.389 359.031C431.125 360.444 429.73 361.736 428.362 363.096C426.994 364.456 425.694 365.8 424.337 367.113C418.787 372.352 412.902 377.225 406.718 381.699C400.487 386.174 393.901 390.133 387.025 393.537C380.1 396.904 372.829 399.51 365.342 401.309C361.595 402.205 357.792 402.852 353.96 403.245C350.129 403.59 346.278 403.67 342.436 403.486C338.614 403.259 334.817 402.707 331.088 401.836C327.399 400.993 323.838 399.661 320.502 397.874Z" fill="white"/>
<path d="M245.101 362.903C245.187 364.77 245.405 366.629 245.755 368.465C246.068 370.296 246.475 372.109 246.975 373.897C247.947 377.454 249.187 380.933 250.687 384.302C253.648 391.005 257.426 397.317 261.936 403.093C266.437 408.841 271.453 414.166 276.921 419.003C282.38 423.895 288.205 428.361 294.346 432.363L298.942 435.448L303.646 438.277L306.006 439.706L308.439 441.032L313.283 443.713C314.905 444.581 316.568 445.393 318.211 446.233C319.854 447.073 321.495 447.951 323.189 448.707L328.242 451.02C329.915 451.823 331.588 452.625 333.305 453.324C346.922 459.273 360.96 464.392 375.135 469.478C360.213 467.131 345.547 463.377 331.334 458.265C327.739 457.064 324.263 455.559 320.735 454.149C318.97 453.448 317.27 452.606 315.537 451.839C313.805 451.073 312.063 450.286 310.353 449.453C303.519 446.085 296.917 442.266 290.59 438.02C284.208 433.771 278.186 429.005 272.585 423.768C266.991 418.468 261.99 412.575 257.669 406.193C255.52 402.996 253.582 399.662 251.867 396.212C250.201 392.746 248.778 389.168 247.609 385.504C246.479 381.848 245.668 378.1 245.184 374.304C244.646 370.525 244.618 366.69 245.101 362.903Z" fill="white"/>
<defs>
<linearGradient id="paint0_linear_1_935" x1="111.748" y1="178.364" x2="362.231" y2="243.57" gradientUnits="userSpaceOnUse">
<stop offset="0.01" stop-color="#4EBAC6"/>
<stop offset="1" stop-color="#4E92C6"/>
</linearGradient>
<linearGradient id="paint1_linear_1_935" x1="21.1025" y1="342.812" x2="259.461" y2="404.87" gradientUnits="userSpaceOnUse">
<stop stop-color="#1FA29C"/>
<stop offset="1" stop-color="#26C69C"/>
</linearGradient>
<linearGradient id="paint2_linear_1_935" x1="179.076" y1="452.03" x2="619.202" y2="566.613" gradientUnits="userSpaceOnUse">
<stop stop-color="#F4B82E"/>
<stop offset="1" stop-color="#EAD04E"/>
</linearGradient>
<linearGradient id="paint3_linear_1_935" x1="315.378" y1="286.952" x2="596.27" y2="360.083" gradientUnits="userSpaceOnUse">
<stop stop-color="#7833D2"/>
<stop offset="1" stop-color="#792EEF"/>
</linearGradient>
<linearGradient id="paint4_linear_1_935" x1="237.953" y1="186.876" x2="485.421" y2="251.301" gradientUnits="userSpaceOnUse">
<stop offset="0.01" stop-color="#4251DD"/>
<stop offset="1" stop-color="#7876DD"/>
</linearGradient>
<linearGradient id="paint5_linear_1_935" x1="23.912" y1="153.924" x2="115.791" y2="177.838" gradientUnits="userSpaceOnUse">
<stop offset="0.01" stop-color="#4EBAC6"/>
<stop offset="1" stop-color="#4E92C6"/>
</linearGradient>
<linearGradient id="paint6_linear_1_935" x1="350.564" y1="50.8849" x2="442.443" y2="74.8091" gradientUnits="userSpaceOnUse">
<stop offset="0.01" stop-color="#4251DD"/>
<stop offset="1" stop-color="#7876DD"/>
</linearGradient>
<linearGradient id="paint7_linear_1_935" x1="552.167" y1="310.171" x2="644.055" y2="334.096" gradientUnits="userSpaceOnUse">
<stop stop-color="#913CD3"/>
<stop offset="1" stop-color="#7930E1"/>
</linearGradient>
<linearGradient id="paint8_linear_1_935" x1="156.702" y1="537.966" x2="596.838" y2="652.549" gradientUnits="userSpaceOnUse">
<stop stop-color="#F4B82E"/>
<stop offset="1" stop-color="#EAD04E"/>
</linearGradient>
<linearGradient id="paint9_linear_1_935" x1="27.4329" y1="488.556" x2="119.322" y2="512.471" gradientUnits="userSpaceOnUse">
<stop stop-color="#1FA29C"/>
<stop offset="1" stop-color="#26C69C"/>
</linearGradient>
</defs>
</svg>
